<svg width="42" height="42" viewBox="0 0 42 42" fill="none" xmlns="http://www.w3.org/2000/svg">
<path d="M39.0522 20.7286C39.0522 30.7405 30.9357 38.8662 20.9147 38.8662C10.8937 38.8662 2.7771 30.7405 2.7771 20.7286C2.7771 10.7076 10.8937 2.59106 20.9147 2.59106C30.9357 2.59106 39.0522 10.7076 39.0522 20.7286Z" fill="#283544"/>
<path d="M29.4162 16.139C29.3172 16.1967 26.9611 17.4152 26.9611 20.1169C27.0722 23.198 29.9344 24.2785 29.9835 24.2785C29.9344 24.3363 29.5514 25.7505 28.4168 27.2329C27.5163 28.5099 26.5169 29.7974 24.9993 29.7974C23.5557 29.7974 23.0375 28.9463 21.3718 28.9463C19.583 28.9463 19.0768 29.7974 17.7072 29.7974C16.1896 29.7974 15.1161 28.4409 14.1666 27.1759C12.933 25.5203 11.8845 22.9221 11.8475 20.4273C11.8226 19.1054 12.0945 17.8059 12.785 16.7021C13.7594 15.1612 15.4992 14.1152 17.399 14.0807C18.8547 14.0349 20.1503 15.012 21.0386 15.012C21.89 15.012 23.4817 14.0807 25.2825 14.0807C26.0599 14.0814 28.1327 14.2996 29.4162 16.139ZM20.9155 13.8167C20.6564 12.6095 21.3718 11.4022 22.038 10.6321C22.8894 9.70084 24.234 9.06873 25.3936 9.06873C25.4676 10.276 24.9985 11.46 24.16 12.3223C23.4076 13.2536 22.1121 13.9547 20.9155 13.8167Z" fill="white"/>
</svg>
